<?xml version="1.0" standalone="no"?>
<!DOCTYPE svg PUBLIC "-//W3C//DTD SVG 20010904//EN"
 "http://www.w3.org/TR/2001/REC-SVG-20010904/DTD/svg10.dtd">
<svg version="1.0" xmlns="http://www.w3.org/2000/svg"
 width="96.000000pt" height="96.000000pt" viewBox="0 0 96.000000 96.000000"
 preserveAspectRatio="xMidYMid meet">
<metadata>
Created by potrace 1.11, written by Peter Selinger 2001-2013
</metadata>
<g transform="translate(0.000000,96.000000) scale(0.100000,-0.100000)"
fill="#000000" stroke="none">
<path d="M0 480 l0 -480 480 0 480 0 0 480 0 480 -480 0 -480 0 0 -480z m712
401 c24 -27 29 -40 26 -73 -4 -52 -22 -59 -44 -16 -26 51 -45 68 -76 68 -85 0
-171 -107 -234 -294 l-24 -68 23 6 c12 3 83 9 158 12 106 5 138 4 144 -6 12
-19 -17 -36 -88 -49 -34 -7 -104 -22 -156 -34 l-93 -21 4 -77 c11 -181 113
-260 253 -195 34 15 87 54 129 93 55 52 72 63 74 50 6 -29 -72 -121 -138 -166
-144 -96 -301 -94 -376 5 -34 44 -64 143 -64 209 0 53 0 54 -31 57 -66 6 -64
65 2 82 33 8 37 14 63 90 36 107 85 192 149 262 69 76 132 106 211 101 52 -3
63 -8 88 -36z"/>
</g>
</svg>
